#!OML:ASF I:\Actors\actors\Patient Classification 1\Patient 1\Session 1\Subject1.ASF
:FULLY-SPECIFIED
:DEGREES
705
root -0.919478 17.5612 7.376 6.9079 0.12312 -7.12988
lowerback 4.33828 0.14362 8.0199
upperback -9.81609 1.35215 2.50318
thorax -13.0843 0.00551495 -1.93355
lowerneck -10.1919 -7.84577 -5.10843
upperneck 17.2871 -11.7177 9.0931
head 7.86047 -5.15542 2.61048
rclavicle 1.31695e-014 -1.86858e-014
rhumerus -9.32764 28.8223 -73.7287
rradius 47.8401
rwrist 56.4323
rhand -33.8135 -56.2933
rfingers 7.12502
rthumb -6.99959 -86.1575
lclavicle 1.31695e-014 -1.86858e-014
lhumerus -11.9122 -21.7 94.517
lradius 108.752
lwrist 17.4916
lhand -28.1303 -14.3413
lfingers 7.12502
lthumb -1.51178 15.6331
rfemur 0.104649 22.6817 27.4425
rtibia 0.484243
rfoot -11.812 -22.1663
rtoes 5.07747
lfemur 3.31433 -33.813 -11.2435
ltibia -1.7125
lfoot -12.0369 39.7971
ltoes -4.26974
706
root -0.924292 17.562 7.37091 6.9127 -0.307604 -7.17049
lowerback 4.07203 0.00484677 7.72261
upperback -9.95469 1.11291 2.53417
thorax -13.1027 -0.0809927 -1.69463
lowerneck -10.2364 -7.57521 -4.98004
upperneck 18.0886 -11.4698 9.18463
head 8.11281 -4.99833 2.64456
rclavicle -5.31749e-015 2.5842e-014
rhumerus -8.69687 29.3524 -74.2348
rradius 47.8035
rwrist 56.2932
rhand -33.8769 -56.1107
rfingers 7.12502
rthumb -7.06069 -85.973
lclavicle -5.31749e-015 2.5842e-014
lhumerus -6.42688 -23.2584 93.2759
lradius 104.793
lwrist 20.843
lhand -26.3975 -10.7613
lfingers 7.12502
lthumb 0.161783 19.2184
rfemur 0.00473442 22.5533 27.4491
rtibia 0.53954
rfoot -11.6563 -21.7002
rtoes 4.90434
lfemur 3.58877 -34.1932 -11.3999
ltibia -1.75647
lfoot -12.5011 40.4381
ltoes -3.53784
707
root -0.928608 17.5639 7.36923 6.89604 -0.894953 -7.10906
lowerback 3.82637 -0.0595641 7.28168
upperback -10.0853 0.961668 2.56017
thorax -13.112 -0.110676 -1.39624
lowerneck -10.1342 -7.29078 -4.90521
upperneck 18.6702 -11.1638 9.23047
head 8.26236 -4.83255 2.68688
rclavicle 1.42131e-014 -5.28767e-014
rhumerus -8.13718 30.0107 -74.5801
rradius 47.8093
rwrist 55.7431
rhand -33.8306 -55.9018
rfingers 7.12502
rthumb -7.01604 -85.7655
lclavicle 1.42131e-014 -5.28767e-014
lhumerus -0.884848 -24.2626 91.9056
lradius 100.035
lwrist 23.4836
lhand -25.1256 -7.85446
lfingers 7.12502
lthumb 1.3903 22.1208
rfemur -0.0564763 22.459 27.3379
rtibia 0.587064
rfoot -11.4703 -21.1516
rtoes 4.79852
lfemur 3.99596 -34.5573 -11.773
ltibia -1.80023
lfoot -13.3036 41.1537
ltoes -2.03851
708
root -0.931681 17.567 7.37043 6.87242 -1.52551 -7.09055
lowerback 3.59884 -0.0967773 6.88114
upperback -10.1974 0.856956 2.61486
thorax -13.1065 -0.119234 -1.09656
lowerneck -10.1875 -7.01318 -4.85117
upperneck 19.3815 -10.8801 9.3068
head 8.48989 -4.66681 2.73569
rclavicle -3.42904e-015 3.37934e-015
rhumerus -7.56648 30.4534 -74.8727
rradius 47.7521
rwrist 55.2942
rhand -33.8137 -55.9658
rfingers 7.12502
rthumb -6.99974 -85.83
lclavicle -3.42904e-015 3.37934e-015
lhumerus 4.46685 -24.8957 90.495
lradius 94.7642
lwrist 25.6403
lhand -24.2 -5.34575
lfingers 7.12502
lthumb 2.28424 24.6218
rfemur -0.108018 22.3541 27.273
rtibia 0.626962
rfoot -11.241 -20.5584
rtoes 4.21986
lfemur 4.35019 -34.5074 -12.0101
ltibia -1.84449
lfoot -14.0766 41.4949
ltoes -0.585083
709
root -0.93298 17.5707 7.37343 6.86262 -2.18596 -7.16155
lowerback 3.55485 -0.132154 6.53568
upperback -10.4123 0.793067 2.73718
thorax -13.3383 -0.116122 -0.755807
lowerneck -10.2081 -6.73628 -4.59153
upperneck 20.127 -10.5802 9.11639
head 8.69626 -4.50415 2.66639
rclavicle 1.35174e-014 -3.8763e-014
rhumerus -7.28952 30.7476 -75.2695
rradius 47.7598
rwrist 54.9745
rhand -33.6988 -56.2982
rfingers 7.12502
rthumb -6.88881 -86.1661
lclavicle 1.35174e-014 -3.8763e-014
lhumerus 9.17326 -25.1809 89.2811
lradius 89.4129
lwrist 28.0018
lhand -23.1428 -2.81514
lfingers 7.12502
lthumb 3.30524 27.139
rfemur -0.189235 22.2185 27.2944
rtibia 0.708703
rfoot -11.0016 -19.8948
rtoes 3.65119
lfemur 4.64313 -34.269 -12.0946
ltibia -1.85967
lfoot -14.677 41.7072
ltoes 0.434986
710
root -0.932611 17.5732 7.37747 6.80298 -2.83442 -7.21038
lowerback 3.46406 -0.145408 6.2568
upperback -10.5122 0.753025 2.84631
thorax -13.4017 -0.102617 -0.472908
lowerneck -10.4429 -6.53347 -4.61121
upperneck 20.8674 -10.3611 9.08403
head 8.97469 -4.37836 2.67983
rclavicle 9.64106e-015 -1.74931e-014
rhumerus -6.94697 30.9822 -75.4713
rradius 47.8277
rwrist 54.7984
rhand -33.3397 -56.5806
rfingers 7.12502
rthumb -6.54219 -86.4596
lclavicle 9.64106e-015 -1.74931e-014
lhumerus 13.645 -25.2678 88.1219
lradius 84.1188
lwrist 30.7827
lhand -21.8211 -0.656321
lfingers 7.12502
lthumb 4.58155 29.2741
rfemur -0.20557 22.0279 27.3124
rtibia 0.787833
rfoot -10.7066 -19.2174
rtoes 3.13904
lfemur 5.01122 -34.0986 -12.2787
ltibia -1.86824
lfoot -15.0794 42.0083
ltoes 0.9606
711
root -0.930562 17.5742 7.3829 6.69964 -3.41052 -7.18132
lowerback 3.42337 -0.135531 5.95776
upperback -10.5979 0.743854 2.92909
thorax -13.4773 -0.0734622 -0.212487
lowerneck -10.7007 -6.30966 -4.49126
upperneck 21.6309 -10.1071 8.91713
head 9.25058 -4.23784 2.63007
rclavicle 7.00716e-015 -9.54166e-015
rhumerus -6.6943 31.1909 -75.4734
rradius 47.9464
rwrist 54.689
rhand -33.1523 -56.9931
rfingers 7.12502
rthumb -6.36121 -86.8776
lclavicle 7.00716e-015 -9.54166e-015
lhumerus 17.6923 -25.3263 87.0948
lradius 78.8847
lwrist 33.1658
lhand -20.4811 0.700393
lfingers 7.12502
lthumb 5.87537 30.5989
rfemur -0.116533 21.9176 27.2871
rtibia 0.789403
rfoot -10.4247 -18.702
rtoes 2.22121
lfemur 5.39259 -33.7779 -12.5443
ltibia -1.90725
lfoot -15.2907 42.1474
ltoes 1.06985
712
root -0.927123 17.5742 7.38905 6.61737 -3.88567 -7.13117
lowerback 3.36716 -0.0669001 5.70694
upperback -10.7176 0.812136 2.93207
thorax -13.5796 -0.0181254 -0.0771862
lowerneck -10.7529 -6.23913 -4.35449
upperneck 22.1747 -10.0542 8.75032
head 9.4291 -4.20328 2.55777
rclavicle -6.70898e-015 1.21259e-014
rhumerus -6.46788 30.3576 -75.3905
rradius 47.971
rwrist 55.9872
rhand -33.2985 -58.078
rfingers 7.12502
rthumb -6.50235 -87.9582
lclavicle -6.70898e-015 1.21259e-014
lhumerus 21.3086 -25.6227 86.1912
lradius 73.7463
lwrist 34.0044
lhand -19.5753 1.3295
lfingers 7.12502
lthumb 6.74981 31.2019
rfemur -0.010946 21.9461 27.2452
rtibia 0.777175
rfoot -10.3292 -18.3384
rtoes 1.81662
lfemur 5.65985 -33.2984 -12.7419
ltibia -1.94044
lfoot -15.3649 42.0826
ltoes 1.14038
713
root -0.923544 17.5737 7.39543 6.55267 -4.33097 -7.12085
lowerback 3.27691 0.0129165 5.56091
upperback -10.8136 0.901516 2.92785
thorax -13.6326 0.0371876 -0.0118293
lowerneck -10.7606 -6.19346 -4.32781
upperneck 22.6091 -10.0134 8.62808
head 9.5714 -4.18348 2.51816
rclavicle -1.6201e-014 3.16068e-014
rhumerus -6.32725 30.0443 -75.3234
rradius 47.8604
rwrist 56.2436
rhand -33.5689 -58.2375
rfingers 7.12502
rthumb -6.76343 -88.1095
lclavicle -1.6201e-014 3.16068e-014
lhumerus 24.5926 -25.9675 85.289
lradius 68.9309
lwrist 33.2843
lhand -19.3998 1.67564
lfingers 7.12502
lthumb 6.91925 31.5426
rfemur 0.0434912 21.9776 27.22
rtibia 0.805801
rfoot -10.3069 -17.9431
rtoes 1.87144
lfemur 5.90894 -32.9284 -12.8977
ltibia -1.97063
lfoot -15.4266 42.1195
ltoes 1.1147
714
root -0.920203 17.5728 7.40373 6.52242 -4.74283 -7.19511
lowerback 3.17255 0.062498 5.5341
upperback -10.8899 0.966255 2.98296
thorax -13.6569 0.0730331 0.056124
lowerneck -10.8474 -6.09453 -4.24402
upperneck 23.009 -9.85724 8.33428
head 9.69582 -4.12187 2.42192
rclavicle 9.19379e-015 6.36111e-015
rhumerus -6.20658 30.2778 -75.2089
rradius 47.7186
rwrist 55.5524
rhand -33.858 -57.6649
rfingers 7.12502
rthumb -7.04248 -87.5277
lclavicle 9.19379e-015 6.36111e-015
lhumerus 27.4431 -26.2574 84.2656
lradius 64.8435
lwrist 32.2632
lhand -19.4948 1.90242
lfingers 7.12502
lthumb 6.8275 31.7723
rfemur 0.0406441 22.0048 27.2708
rtibia 0.874714
rfoot -10.2816 -17.5414
rtoes 1.80806
lfemur 6.13199 -32.7378 -12.977
ltibia -1.96571
lfoot -15.624 42.31
ltoes 1.27926
715
root -0.916022 17.5722 7.41411 6.53795 -5.04189 -7.2639
lowerback 3.01327 0.0767254 5.56878
upperback -10.9418 0.98302 3.03725
thorax -13.6196 0.080731 0.0953712
lowerneck -11.0403 -5.95297 -4.30592
upperneck 23.3891 -9.6395 8.18345
head 9.84596 -4.02678 2.40426
rclavicle 4.62174e-015 5.92378e-014
rhumerus -6.02923 30.6934 -75.0051
rradius 47.6502
rwrist 54.6075
rhand -33.8391 -57.4959
rfingers 7.12502
rthumb -7.02429 -87.3593
lclavicle 4.62174e-015 5.92378e-014
lhumerus 29.8176 -26.58 83.1031
lradius 61.8536
lwrist 31.9435
lhand -19.3092 2.16895
lfingers 7.12502
lthumb 7.00665 32.033
rfemur 0.0143183 22.0513 27.3019
rtibia 0.931031
rfoot -10.2602 -17.2409
rtoes 1.95333
lfemur 6.26483 -32.6926 -13.0488
ltibia -1.90545
lfoot -15.8446 42.5534
ltoes 1.51836
